<svg xmlns="http://www.w3.org/2000/svg" xmlns:xlink="http://www.w3.org/1999/xlink" width="1080" zoomAndPan="magnify" viewBox="0 0 810 809.999993" height="1080" preserveAspectRatio="xMidYMid meet" version="1.0"><defs><g/><clipPath id="92d04151d0"><path d="M 0.960938 0.960938 L 779.039062 0.960938 L 779.039062 779.039062 L 0.960938 779.039062 Z M 0.960938 0.960938 " clip-rule="nonzero"/></clipPath><clipPath id="6c48b0f392"><path d="M 390 0.960938 C 175.140625 0.960938 0.960938 175.140625 0.960938 390 C 0.960938 604.859375 175.140625 779.039062 390 779.039062 C 604.859375 779.039062 779.039062 604.859375 779.039062 390 C 779.039062 175.140625 604.859375 0.960938 390 0.960938 Z M 390 0.960938 " clip-rule="nonzero"/></clipPath><clipPath id="21f8730348"><path d="M 0.960938 0.960938 L 779.039062 0.960938 L 779.039062 779.039062 L 0.960938 779.039062 Z M 0.960938 0.960938 " clip-rule="nonzero"/></clipPath><clipPath id="9a93cc5928"><path d="M 390 0.960938 C 175.140625 0.960938 0.960938 175.140625 0.960938 390 C 0.960938 604.859375 175.140625 779.039062 390 779.039062 C 604.859375 779.039062 779.039062 604.859375 779.039062 390 C 779.039062 175.140625 604.859375 0.960938 390 0.960938 Z M 390 0.960938 " clip-rule="nonzero"/></clipPath><clipPath id="2f39b0e252"><rect x="0" width="780" y="0" height="780"/></clipPath><clipPath id="9c82364587"><rect x="0" width="421" y="0" height="307"/></clipPath><clipPath id="6803040670"><rect x="0" width="780" y="0" height="780"/></clipPath></defs><g transform="matrix(1, 0, 0, 1, 15, 15)"><g clip-path="url(#6803040670)"><g clip-path="url(#92d04151d0)"><g clip-path="url(#6c48b0f392)"><g transform="matrix(1, 0, 0, 1, -0.000000000000001776, 0.00000000000003908)"><g clip-path="url(#2f39b0e252)"><g clip-path="url(#21f8730348)"><g clip-path="url(#9a93cc5928)"><path fill="#005d6f" d="M 0.960938 0.960938 L 779.039062 0.960938 L 779.039062 779.039062 L 0.960938 779.039062 Z M 0.960938 0.960938 " fill-opacity="1" fill-rule="nonzero"/></g></g></g></g></g></g><path fill="#ffffff" d="M 640.445312 233.527344 C 659.289062 245.785156 684.972656 266.457031 692.140625 282.359375 C 699.070312 297.75 706.941406 328.960938 707.933594 348.417969 C 713.273438 453.328125 630.839844 511.023438 535.609375 520.746094 C 527.058594 521.613281 509.816406 515.226562 496.832031 519.308594 C 489.167969 521.722656 483.136719 536.359375 476.734375 545.148438 C 451.644531 579.640625 415.46875 605.992188 377.640625 627.007812 C 396.035156 606.074219 404.160156 567.449219 410.679688 539.410156 C 368.96875 545.015625 338.722656 555.535156 287.171875 552.332031 C 244.566406 549.683594 205.847656 538.226562 172.292969 519.308594 C 116.964844 488.097656 76.246094 449.601562 83.253906 364.214844 C 90.34375 277.917969 163.570312 219.472656 234.042969 197.628906 C 242.273438 195.082031 251.503906 192.933594 259.890625 190.449219 C 283.230469 183.535156 306.335938 178.957031 338.871094 176.085938 C 428.074219 168.242188 493.050781 174.265625 571.507812 201.941406 C 596.132812 210.617188 618.886719 219.519531 640.445312 233.527344 " fill-opacity="1" fill-rule="nonzero"/><path fill="#005d6f" d="M 496.835938 519.308594 C 509.816406 515.222656 527.058594 521.613281 535.613281 520.746094 C 630.839844 511.023438 713.277344 453.328125 707.933594 348.414062 C 706.941406 328.960938 699.070312 297.746094 692.140625 282.359375 C 684.976562 266.457031 659.289062 245.785156 640.445312 233.527344 C 618.886719 219.515625 596.136719 210.617188 571.511719 201.941406 C 493.050781 174.265625 428.074219 168.238281 338.871094 176.085938 C 306.335938 178.957031 283.230469 183.535156 259.894531 190.449219 C 251.503906 192.929688 242.273438 195.078125 234.042969 197.628906 C 163.570312 219.46875 90.34375 277.914062 83.253906 364.214844 C 76.246094 449.601562 116.964844 488.097656 172.292969 519.308594 C 205.847656 538.226562 244.566406 549.683594 287.171875 552.332031 C 338.722656 555.535156 368.96875 545.015625 410.679688 539.410156 C 404.164062 567.449219 396.039062 606.074219 377.640625 627.007812 C 415.46875 605.992188 451.648438 579.640625 476.734375 545.148438 C 483.136719 536.359375 489.171875 521.722656 496.835938 519.308594 Z M 722.300781 338.363281 C 724.578125 360.570312 721.832031 397.851562 715.117188 414.472656 C 702.320312 446.167969 675.511719 482.09375 641.882812 502.070312 C 612.726562 519.390625 569.785156 533.753906 535.613281 535.101562 C 526.417969 535.472656 517.289062 530.195312 505.453125 533.664062 C 493.261719 537.242188 474.878906 571.316406 465.246094 581.054688 C 451.410156 595.042969 432.046875 607.234375 414.988281 619.828125 C 397.867188 632.453125 380.667969 651.425781 354.664062 645.683594 C 353.273438 626.324219 372.003906 615.375 379.078125 598.285156 C 384.445312 585.339844 384.464844 568.085938 392.003906 553.769531 C 289.167969 578.894531 187.769531 556.417969 127.769531 507.816406 C 115.273438 497.683594 87.644531 468.617188 80.386719 453.246094 C 55.390625 400.335938 70.398438 323.742188 91.875 288.101562 C 162.863281 170.292969 387.316406 128.554688 554.277344 184.707031 C 596.171875 198.792969 635.96875 213.679688 664.855469 236.40625 C 693.722656 259.101562 717.417969 290.714844 722.300781 338.363281 " fill-opacity="1" fill-rule="nonzero"/><g transform="matrix(1, 0, 0, 1, 180, 211)"><g clip-path="url(#9c82364587)"><g fill="#005d6f" fill-opacity="1"><g transform="translate(0.891205, 247.433491)"><g><path d="M 27.59375 -179.1875 C 28.175781 -184.613281 30.109375 -189.019531 33.390625 -192.40625 C 36.679688 -195.789062 40.550781 -198.015625 45 -199.078125 C 49.457031 -200.148438 53.816406 -200.148438 58.078125 -199.078125 C 62.335938 -198.015625 65.726562 -195.835938 68.25 -192.546875 C 70.769531 -189.253906 71.738281 -184.800781 71.15625 -179.1875 C 65.539062 -126.71875 61.179688 -74.148438 58.078125 -21.484375 C 57.691406 -15.867188 55.945312 -11.414062 52.84375 -8.125 C 49.75 -4.832031 46.023438 -2.601562 41.671875 -1.4375 C 37.316406 -0.28125 33.007812 -0.28125 28.75 -1.4375 C 24.488281 -2.601562 20.953125 -4.832031 18.140625 -8.125 C 15.335938 -11.414062 14.128906 -15.867188 14.515625 -21.484375 C 17.617188 -74.148438 21.976562 -126.71875 27.59375 -179.1875 Z M 27.59375 -179.1875 "/></g></g><g transform="translate(86.855818, 247.433491)"><g><path d="M 63.015625 -208.234375 C 74.441406 -206.097656 85.476562 -202.898438 96.125 -198.640625 C 106.78125 -194.390625 116.65625 -188.195312 125.75 -180.0625 C 135.625 -171.15625 143.269531 -160.550781 148.6875 -148.25 C 154.113281 -135.957031 156.050781 -123.132812 154.5 -109.78125 C 153.144531 -98.351562 149.515625 -87.800781 143.609375 -78.125 C 137.703125 -68.445312 130.492188 -59.925781 121.984375 -52.5625 C 112.492188 -44.4375 101.3125 -37.90625 88.4375 -32.96875 C 75.5625 -28.03125 63.21875 -23.625 51.40625 -19.75 C 48.113281 -18.78125 44.769531 -17.90625 41.375 -17.125 C 37.988281 -16.351562 34.648438 -16.160156 31.359375 -16.546875 C 26.710938 -17.328125 22.695312 -19.554688 19.3125 -23.234375 C 15.925781 -26.910156 14.328125 -31.070312 14.515625 -35.71875 C 15.867188 -88.382812 18.484375 -141.242188 22.359375 -194.296875 C 22.742188 -200.296875 24.726562 -204.457031 28.3125 -206.78125 C 31.894531 -209.101562 36.15625 -210.359375 41.09375 -210.546875 C 46.03125 -210.742188 50.820312 -210.457031 55.46875 -209.6875 C 57.988281 -209.300781 60.503906 -208.816406 63.015625 -208.234375 Z M 109.484375 -107.171875 C 112.203125 -115.109375 112.640625 -122.222656 110.796875 -128.515625 C 108.953125 -134.804688 105.609375 -140.320312 100.765625 -145.0625 C 95.929688 -149.8125 90.222656 -153.734375 83.640625 -156.828125 C 77.054688 -159.921875 70.378906 -162.144531 63.609375 -163.5 C 61.671875 -131.5625 60.117188 -100.003906 58.953125 -68.828125 C 66.117188 -71.148438 73.039062 -73.8125 79.71875 -76.8125 C 86.394531 -79.8125 92.347656 -83.734375 97.578125 -88.578125 C 102.804688 -93.421875 106.773438 -99.617188 109.484375 -107.171875 Z M 109.484375 -107.171875 "/></g></g></g><g fill="#005d6f" fill-opacity="1"><g transform="translate(256.461711, 247.433491)"><g><path d="M 145.21875 -183.546875 C 139.40625 -173.671875 133.15625 -163.941406 126.46875 -154.359375 C 119.789062 -144.773438 112.097656 -136.207031 103.390625 -128.65625 C 121.972656 -107.351562 132.523438 -82.085938 135.046875 -52.859375 C 135.429688 -47.429688 134.316406 -43.023438 131.703125 -39.640625 C 129.085938 -36.253906 125.695312 -34.023438 121.53125 -32.953125 C 117.375 -31.890625 113.066406 -31.890625 108.609375 -32.953125 C 104.160156 -34.023438 100.289062 -36.253906 97 -39.640625 C 93.707031 -43.023438 91.867188 -47.429688 91.484375 -52.859375 C 90.515625 -63.316406 87.707031 -73.191406 83.0625 -82.484375 C 78.414062 -91.773438 72.316406 -99.90625 64.765625 -106.875 C 62.828125 -82.28125 60.210938 -57.984375 56.921875 -33.984375 C 56.335938 -30.109375 54.546875 -26.863281 51.546875 -24.25 C 48.546875 -21.632812 45.0625 -19.796875 41.09375 -18.734375 C 37.125 -17.671875 33.394531 -17.625 29.90625 -18.59375 C 23.71875 -20.332031 19.460938 -23.765625 17.140625 -28.890625 C 14.816406 -34.023438 14.039062 -39.5 14.8125 -45.3125 C 18.488281 -72.800781 21.242188 -100.4375 23.078125 -128.21875 C 24.921875 -156 25.941406 -183.734375 26.140625 -211.421875 C 26.140625 -217.035156 27.585938 -221.535156 30.484375 -224.921875 C 33.390625 -228.316406 37.019531 -230.546875 41.375 -231.609375 C 45.738281 -232.671875 50.097656 -232.671875 54.453125 -231.609375 C 58.804688 -230.546875 62.4375 -228.316406 65.34375 -224.921875 C 68.25 -221.535156 69.703125 -217.035156 69.703125 -211.421875 C 69.503906 -201.941406 69.304688 -192.503906 69.109375 -183.109375 C 68.921875 -173.722656 68.535156 -164.285156 67.953125 -154.796875 C 73.765625 -158.273438 79.085938 -162.96875 83.921875 -168.875 C 88.765625 -174.78125 93.125 -181.023438 97 -187.609375 C 100.875 -194.191406 104.359375 -200.097656 107.453125 -205.328125 C 110.359375 -210.171875 113.890625 -213.316406 118.046875 -214.765625 C 122.210938 -216.210938 126.472656 -216.351562 130.828125 -215.1875 C 135.191406 -214.03125 138.96875 -211.851562 142.15625 -208.65625 C 145.351562 -205.46875 147.335938 -201.695312 148.109375 -197.34375 C 148.890625 -192.988281 147.925781 -188.390625 145.21875 -183.546875 Z M 145.21875 -183.546875 "/></g></g></g></g></g></g></g></svg>